<svg width="37" height="35" viewBox="0 0 37 35" fill="none" xmlns="http://www.w3.org/2000/svg">
<g clip-path="url(#clip0_5_818)">
<path d="M5.69261 10.4704L24.1242 4.09086C24.3363 4.01692 24.5551 3.96326 24.7776 3.93059L6.34553 10.3126C6.12346 10.3455 5.90492 10.3983 5.69261 10.4704" fill="#747678"/>
<path d="M6.3452 10.3144L24.7772 3.93242C24.9572 3.90601 25.1387 3.89141 25.3206 3.88873L6.88859 10.2707C6.7066 10.2726 6.52502 10.2872 6.3452 10.3144" fill="#787A7C"/>
<path d="M6.88832 10.2688L25.3204 3.88677C25.4642 3.88769 25.612 3.89444 25.7587 3.90732L7.32908 10.2898C7.18281 10.2752 7.0359 10.2683 6.88894 10.2689" fill="#7C7E7F"/>
<path d="M7.32893 10.2904L25.7565 3.90819C25.8859 3.92092 26.014 3.94039 26.1441 3.96278L7.71208 10.3448C7.58245 10.3199 7.45399 10.3023 7.32695 10.2906" fill="#7F8183"/>
<path d="M7.71396 10.3451L26.1464 3.96129C26.2618 3.98341 26.3763 4.01043 26.4929 4.03975L8.06052 10.4236C7.9439 10.3942 7.8294 10.3672 7.71396 10.3451Z" fill="#838587"/>
<path d="M8.06051 10.4236L26.4926 4.04158C26.5994 4.07157 26.7081 4.10253 26.8155 4.13961L8.38393 10.5191C8.27613 10.4839 8.16725 10.451 8.06051 10.4236" fill="#87898B"/>
<path d="M8.38391 10.5191L26.8155 4.13961C26.9208 4.17438 27.0238 4.21124 27.1303 4.25322L8.6983 10.6352C8.59179 10.5932 8.48878 10.5564 8.38391 10.5191Z" fill="#8B8D8F"/>
<path d="M8.69582 10.6347L27.1279 4.25275C27.2226 4.29247 27.3198 4.33328 27.4186 4.37885L8.99158 10.7612C8.8928 10.7156 8.79601 10.673 8.70087 10.6351" fill="#8F9193"/>
<path d="M8.98928 10.7601L27.4213 4.3781C27.5176 4.42319 27.6135 4.47073 27.7139 4.52105L9.28187 10.903C9.18403 10.8526 9.08865 10.8026 8.98928 10.7601" fill="#939597"/>
<path d="M9.27974 10.9039L27.7118 4.52192C27.8047 4.57144 27.8976 4.62096 27.9904 4.67427L9.55837 11.0562C9.46629 11.0025 9.37386 10.9505 9.27974 10.9039" fill="#98999B"/>
<path d="M9.55764 11.0567L27.9897 4.67476C28.0818 4.72856 28.1759 4.78528 28.2676 4.84409L9.83558 11.2261C9.74443 11.1674 9.65034 11.1107 9.55764 11.0567" fill="#9C9E9F"/>
<path d="M9.83559 11.2261L28.2675 4.84471C28.3587 4.9034 28.4494 4.96454 28.5428 5.02811L10.1107 11.4069C10.0179 11.3435 9.92674 11.2848 9.83474 11.2272" fill="#A0A2A3"/>
<path d="M10.1107 11.4069L28.5423 5.02738C28.6326 5.09036 28.7248 5.15687 28.8149 5.22486L10.3828 11.6068C10.2939 11.5365 10.2015 11.4706 10.1107 11.4069Z" fill="#A4A6A7"/>
<path d="M10.3828 11.6068L28.8149 5.22486C28.9067 5.2932 28.9981 5.36399 29.0935 5.44063L10.6586 11.824C10.5657 11.7478 10.4743 11.677 10.38 11.6082" fill="#A8AAAB"/>
<path d="M10.6591 11.8215L29.0911 5.43955C29.1608 5.49667 29.2326 5.5561 29.3018 5.61567L10.8698 11.9976C10.8009 11.9362 10.7288 11.8786 10.6591 11.8215" fill="#ADAEAF"/>
<path d="M10.8692 11.9975L29.3013 5.61554L29.366 5.67172L10.934 12.0537L10.8692 11.9975" fill="#ADAEAF"/>
<path d="M10.934 12.0537L29.366 5.67172C29.4605 5.75325 29.5525 5.8343 29.6428 5.92075L11.2107 12.3027C11.1196 12.2174 11.0279 12.1345 10.9334 12.0536" fill="#B1B2B3"/>
<path d="M11.2113 12.3029L29.6434 5.92087C29.7365 6.00913 29.8273 6.0963 29.917 6.18642L11.4848 12.569C11.3944 12.4794 11.3038 12.3916 11.2112 12.3035" fill="#B5B6B7"/>
<path d="M11.4869 12.5681L29.919 6.18616C30.0127 6.2815 30.107 6.37697 30.198 6.47686L11.7645 12.856C11.6731 12.7586 11.5794 12.6633 11.4851 12.5678" fill="#B9BBBB"/>
<path d="M11.7645 12.856L30.1961 6.4765C30.2891 6.57678 30.3817 6.6791 30.4739 6.78346L12.0419 13.1654C11.9499 13.0609 11.8574 12.9557 11.7641 12.8585" fill="#BEBFBF"/>
<path d="M12.0418 13.1661L30.4738 6.78407C30.5678 6.89151 30.6594 7.00105 30.7525 7.11339L12.3204 13.4954C12.2274 13.383 12.1357 13.2735 12.0418 13.1661" fill="#C2C3C3"/>
<path d="M12.3204 13.4954L30.7506 7.11303C30.8432 7.22782 30.934 7.34164 31.0232 7.46085L12.5911 13.8428C12.5018 13.7242 12.4116 13.6074 12.3184 13.4956" fill="#C6C7C8"/>
<path d="M12.5937 13.8427L31.0258 7.46071C31.1175 7.57978 31.2069 7.70094 31.2957 7.82198L12.8637 14.204C12.7753 14.0805 12.6855 13.9618 12.5937 13.8427" fill="#CBCBCB"/>
<path d="M12.8635 14.2046L31.2956 7.8226C31.3801 7.94281 31.4634 8.0645 31.5456 8.18766L13.1141 14.5672C13.0325 14.445 12.946 14.3219 12.864 14.2021" fill="#CFCFD0"/>
<path d="M13.1162 14.5695L31.5477 8.18998C31.6317 8.31264 31.7129 8.43707 31.7911 8.56328L13.3595 14.9428C13.2808 14.819 13.1997 14.6946 13.1162 14.5695Z" fill="#D4D4D4"/>
<path d="M13.3595 14.9428L31.7911 8.56327C31.8677 8.68452 31.9444 8.80833 32.0178 8.93338L13.5863 15.3155C13.5124 15.1903 13.4363 15.0666 13.3595 14.9428Z" fill="#DBDBDB"/>
<path d="M13.5856 15.316L32.0176 8.934C32.093 9.06197 32.1688 9.19067 32.2418 9.32074L13.8097 15.7027C13.7367 15.5727 13.6614 15.4447 13.5862 15.3161" fill="#DFDEDE"/>
<path d="M13.8129 15.7027L32.245 9.32072C32.3189 9.45604 32.3914 9.58855 32.4631 9.72535L14.0311 16.1073C13.9595 15.9699 13.8879 15.8357 13.8129 15.7027Z" fill="#E0E0E0"/>
<path d="M14.0279 16.1074L32.4599 9.72537C32.5435 9.88666 32.6274 10.0505 32.705 10.2164L14.2732 16.5971C14.1948 16.4318 14.1115 16.2686 14.0281 16.1061" fill="#E1E1E1"/>
<path d="M14.2732 16.5971L32.7053 10.2151C32.826 10.4635 32.9395 10.7129 33.0492 10.9686L14.6176 17.3482C14.5074 17.0949 14.3939 16.8454 14.2732 16.5971" fill="#E2E2E2"/>
<path d="M14.6177 17.3476L33.0493 10.968C33.1876 11.2906 33.3169 11.6179 33.4371 11.9501L15.0051 18.332C14.8858 17.9992 14.7567 17.6711 14.6177 17.3476Z" fill="#E3E3E2"/>
<path d="M15.0032 18.3317L33.4353 11.9497C33.5218 12.1864 33.6001 12.4253 33.6818 12.6674L15.2467 19.0482C15.1709 18.8059 15.0898 18.5678 15.0003 18.3305" fill="#E2E2E2"/>
<path d="M15.2466 19.0488L33.679 12.665C33.729 12.8249 33.7787 12.9867 33.8229 13.1499L15.3908 19.5319C15.3466 19.3686 15.2971 19.2063 15.247 19.047" fill="#E1E1E1"/>
<path d="M15.3905 19.5337L33.8226 13.1517C33.864 13.2929 33.903 13.4336 33.9391 13.5756L15.5071 19.9576C15.4704 19.8148 15.4333 19.6745 15.3905 19.5337Z" fill="#E0E0E0"/>
<path d="M15.507 19.9576L33.9391 13.5756C33.9706 13.7053 34.004 13.8348 34.033 13.964L15.6014 20.3436C15.5724 20.2143 15.5404 20.0877 15.507 19.9576" fill="#DFDEDE"/>
<path d="M15.6014 20.3436L34.033 13.964C34.0625 14.0908 34.092 14.2176 34.1191 14.3434L15.687 20.7253C15.66 20.599 15.6309 20.4704 15.6014 20.3436Z" fill="#DBDBDB"/>
<path d="M15.6869 20.726L34.1189 14.344C34.1454 14.4728 34.1696 14.6004 34.1943 14.7289L15.7622 21.1108C15.7382 20.9825 15.7134 20.8547 15.6869 20.726" fill="#D4D4D4"/>
<path d="M15.7624 21.1102L34.1944 14.7283C34.2185 14.8566 34.2403 14.9863 34.2619 15.1142L15.83 21.4955C15.8102 21.3681 15.7865 21.2379 15.7625 21.1096" fill="#CFCFD0"/>
<path d="M15.8294 21.4986L34.2614 15.1166C34.2817 15.2512 34.3031 15.3834 34.3215 15.5176L15.89 21.8971C15.8715 21.7629 15.8537 21.6289 15.8298 21.4962" fill="#CBCBCB"/>
<path d="M15.89 21.8971L34.322 15.5152C34.3405 15.6494 34.3583 15.7835 34.373 15.917L15.941 22.2989C15.9275 22.1657 15.909 22.0315 15.89 21.8971" fill="#C6C7C8"/>
<path d="M15.9398 22.2987L34.3718 15.9167C34.3869 16.0553 34.3999 16.1911 34.4126 16.3286L15.9805 22.7106C15.968 22.5724 15.9549 22.4367 15.9398 22.2987" fill="#C2C3C3"/>
<path d="M15.9806 22.7106L34.4126 16.3286C34.4232 16.4638 34.4334 16.6009 34.4417 16.7382L16.0084 23.12C16.0007 22.9828 15.9899 22.8456 15.9793 22.7103" fill="#BEBFBF"/>
<path d="M16.0096 23.1202L34.4416 16.7382C34.4479 16.8726 34.4541 17.007 34.4573 17.1409L16.0257 23.5204C16.022 23.3865 16.0128 23.254 16.0096 23.1202" fill="#B9BBBB"/>
<path d="M16.0257 23.5204L34.4573 17.1409C34.4615 17.2723 34.4628 17.4058 34.4617 17.5388L16.0301 23.9183C16.0308 23.7878 16.0295 23.6543 16.0257 23.5204" fill="#B5B6B7"/>
<path d="M16.0301 23.9183L34.4617 17.5388C34.4617 17.6657 34.4617 17.7925 34.4574 17.9186L16.0253 24.3005C16.0296 24.1745 16.0296 24.0476 16.0304 23.9165" fill="#B1B2B3"/>
<path d="M16.025 24.3024L34.457 17.9204C34.4527 18.0464 34.4478 18.1724 34.4385 18.2975L16.0065 24.6794C16.0157 24.5544 16.0207 24.4284 16.025 24.3024" fill="#ADAEAF"/>
<path d="M16.0066 24.682L34.4383 18.2987C34.4315 18.4243 34.4231 18.5451 34.4095 18.6662L15.9774 25.0481C15.991 24.927 15.9996 24.8056 16.0062 24.6807" fill="#A8AAAB"/>
<path d="M15.9775 25.0481L34.4095 18.6662C34.3984 18.7877 34.3849 18.9082 34.372 19.0294L15.9399 25.4114C15.9535 25.2903 15.9664 25.1697 15.9775 25.0481Z" fill="#A4A6A7"/>
<path d="M15.9398 25.4082L34.3719 19.0262C34.3558 19.1468 34.3385 19.264 34.3206 19.3843L15.889 25.7638C15.9064 25.646 15.9249 25.5265 15.9398 25.4082Z" fill="#A0A2A3"/>
<path d="M15.8884 25.7669L34.32 19.3874C34.299 19.4969 34.2828 19.608 34.2618 19.7175L34.2578 19.7383L15.8258 26.1203L15.8298 26.0995C15.8508 25.9899 15.8719 25.8798 15.8884 25.7669" fill="#9C9E9F"/>
<path d="M15.8252 26.1202L34.2573 19.7382C34.2338 19.8606 34.2062 19.9777 34.1795 20.0937L15.7476 26.4751C15.7749 26.3592 15.7995 26.2408 15.8253 26.1195" fill="#98999B"/>
<path d="M15.7475 26.4757L34.1796 20.0937C34.1518 20.2121 34.123 20.3252 34.092 20.4373L15.6599 26.8192C15.6911 26.7066 15.7209 26.5911 15.7475 26.4757" fill="#939597"/>
<path d="M15.6599 26.8192L34.092 20.4373C34.0593 20.5579 34.0229 20.6708 33.9863 20.7849L15.5543 27.1669C15.5909 27.0528 15.6273 26.9392 15.6599 26.8192" fill="#8F9193"/>
<path d="M15.5543 27.1669L33.9863 20.7849C33.9487 20.9046 33.908 21.0167 33.8645 21.127L15.4349 27.5094C15.4759 27.3987 15.5172 27.2835 15.5543 27.1669" fill="#8B8D8F"/>
<path d="M15.4349 27.5094L33.8644 21.127C33.82 21.2453 33.7725 21.3631 33.7223 21.4746L15.2931 27.8552C15.3419 27.7409 15.3881 27.6267 15.4352 27.5076" fill="#87898B"/>
<path d="M15.2927 27.8577L33.7222 21.4752C33.6692 21.5983 33.6117 21.7179 33.5515 21.832L15.1194 28.214C15.1806 28.0988 15.2367 27.9827 15.2927 27.8577Z" fill="#838587"/>
<path d="M15.1194 28.214L33.5508 21.8319C33.4877 21.9574 33.4182 22.0799 33.347 22.1944L14.915 28.5763C14.986 28.4593 15.0557 28.3394 15.1188 28.2139" fill="#7F8183"/>
<path d="M14.9156 28.5765L33.3476 22.1945C33.2652 22.3309 33.18 22.458 33.0905 22.581L14.6586 28.9624C14.7479 28.8391 14.8336 28.7102 14.9157 28.5758" fill="#7C7E7F"/>
<path d="M14.6585 28.963L33.0905 22.581C32.9734 22.7385 32.8467 22.8888 32.7112 23.031L14.2789 29.4142C14.4145 29.272 14.5411 29.1217 14.6582 28.9642" fill="#787A7C"/>
<path d="M14.2792 29.413L32.7112 23.031C32.2924 23.4813 31.7693 23.8239 31.1869 24.0292L12.7549 30.4112C13.3373 30.2058 13.8603 29.8633 14.2792 29.413" fill="#747678"/>
<path d="M10.8694 12.435C14.5116 15.5604 16.734 21.8816 15.8299 26.537C14.9199 31.2102 11.2243 32.4552 7.58383 29.3302C3.92864 26.1953 1.71919 19.8836 2.62677 15.2099C3.53352 10.5538 7.21429 9.29956 10.8694 12.435Z" fill="#77797B"/>
</g>
<defs>
<clipPath id="clip0_5_818">
<rect width="32" height="29" fill="white" transform="translate(5.45679) rotate(10.8457)"/>
</clipPath>
</defs>
</svg>
