<svg width="41" height="26" viewBox="0 0 41 26" fill="none" xmlns="http://www.w3.org/2000/svg">
<path d="M16.313 11.373C17.3517 10.9697 18.2381 10.2514 18.8478 9.31886C19.4576 8.38629 19.7601 7.28623 19.713 6.173C19.713 1.209 16.013 0 11.747 0H0V24.915H12.08C16.608 24.915 20.862 22.742 20.862 17.68C20.862 14.551 19.378 12.238 16.313 11.373V11.373ZM5.477 4.25H10.617C12.593 4.25 14.372 4.805 14.372 7.098C14.372 9.214 12.987 10.065 11.032 10.065H5.477V4.25ZM11.334 20.682H5.477V13.82H11.447C13.859 13.82 15.385 14.825 15.385 17.378C15.385 19.895 13.564 20.678 11.335 20.678L11.334 20.682ZM36.541 3.758H26.441V1.304H36.541V3.758ZM40.5 16.158C40.5 10.821 37.378 6.37 31.718 6.37C26.218 6.37 22.486 10.504 22.486 15.918C22.486 21.536 26.023 25.389 31.718 25.389C36.028 25.389 38.818 23.448 40.163 19.321H35.789C35.318 20.861 33.377 21.676 31.873 21.676C28.973 21.676 27.443 19.976 27.443 17.085H40.458C40.479 16.787 40.5 16.471 40.5 16.154V16.158ZM27.45 13.961C27.4517 13.4332 27.5613 12.9114 27.7719 12.4275C27.9826 11.9436 28.29 11.5079 28.6751 11.1471C29.0603 10.7862 29.5152 10.5079 30.0118 10.3293C30.5084 10.1506 31.0362 10.0753 31.563 10.108C34.052 10.108 35.304 11.57 35.515 13.961H27.45Z" fill="#B99F6E"/>
</svg>
