<svg width="930" height="929" viewBox="0 0 930 929" fill="none" xmlns="http://www.w3.org/2000/svg">
<ellipse cx="464.995" cy="464.5" rx="399.559" ry="399.064" fill="#D9DEEA"/>
<ellipse cx="464.503" cy="464.004" rx="347.51" ry="347.012" fill="#D3D9E7"/>
<path d="M895.534 464.004C895.534 701.782 702.555 894.54 464.501 894.54C226.447 894.54 33.4683 701.782 33.4683 464.004C33.4683 226.227 226.447 33.4683 464.501 33.4683C702.555 33.4683 895.534 226.227 895.534 464.004Z" stroke="#D8DBE1" stroke-width="1.5"/>
<path d="M929.491 464.5C929.491 720.76 721.53 928.5 464.996 928.5C208.461 928.5 0.5 720.76 0.5 464.5C0.5 208.24 208.461 0.5 464.996 0.5C721.53 0.5 929.491 208.24 929.491 464.5Z" stroke="#D8DBE1"/>
</svg>
