<svg width="182" height="153" viewBox="0 0 182 153" fill="none" xmlns="http://www.w3.org/2000/svg">
<g opacity="0.03">
<path d="M2.83065 27.4111L27.2775 0L60.1568 121.128H181.285L160.414 147.961C159.369 149.305 158.031 150.392 156.502 151.139C154.973 151.887 153.294 152.275 151.592 152.275H41.7555C39.3315 152.275 36.9731 151.487 35.0358 150.031C33.0985 148.574 31.6874 146.527 31.0152 144.198L0.439891 37.9475C-0.0850888 36.1324 -0.141152 34.2137 0.276962 32.3711C0.695076 30.5284 1.57369 28.8219 2.83065 27.4111Z" fill="#435060"/>
<path d="M60.1584 14.4133H123.607C123.607 14.4133 138.604 14.7021 143.218 32.5865C147.832 50.4708 160.811 93.1514 160.811 93.1514H125.333L115.726 59.2626C114.756 55.6404 112.74 52.3843 109.931 49.9014C109.636 49.6483 109.325 49.3999 109 49.1563C106.353 47.2539 103.173 46.2363 99.9131 46.2486L67.9506 45.8447L60.1584 14.4133Z" fill="#435060"/>
</g>
</svg>
