<svg width="33" height="33" viewBox="0 0 33 33" fill="none" xmlns="http://www.w3.org/2000/svg">
<path fill-rule="evenodd" clip-rule="evenodd" d="M0 6C0 2.68629 2.68629 0 6 0H27C30.3137 0 33 2.68629 33 6V27C33 30.3137 30.3137 33 27 33H6C2.68629 33 0 30.3137 0 27V6Z" fill="#1F0040"/>
<path fill-rule="evenodd" clip-rule="evenodd" d="M9.45551 19.1409L8.36673 23.3526C8.34391 23.4688 8.29855 23.5127 8.16245 23.5127H6.14381C6.00772 23.5127 5.9849 23.4661 6.00772 23.3034L9.90903 9.29532C9.97722 9.0395 10.0226 8.83755 10.0451 8.13962C10.0451 8.04654 10.0905 8 10.1587 8H13.0394C13.1299 8 13.1752 8.02341 13.198 8.13962L17.576 23.3265C17.5985 23.443 17.576 23.5127 17.4624 23.5127H15.1941C15.0809 23.5127 15.0127 23.4688 14.9901 23.376L13.856 19.1409H9.45551ZM13.3135 16.8515C12.9279 15.2924 11.9957 11.8731 11.6555 10.221H11.6329C11.338 11.8731 10.5935 14.6628 10.0264 16.8501L13.3135 16.8515ZM20.6827 18.2947C20.7055 20.2029 21.5903 21.4826 23.677 21.4826C24.4934 21.4826 25.1931 21.3719 25.919 21.046C26.0097 20.9995 26.0779 21.0229 26.0779 21.1391V22.9077C26.0779 23.0473 26.0325 23.117 25.9418 23.1868C25.2161 23.5592 24.3121 23.722 23.1779 23.722C19.5488 23.722 18.1877 20.9763 18.1877 17.9047C18.1877 14.5773 19.8661 11.8549 22.8152 11.8549C25.8092 11.8549 26.8526 14.4377 26.8526 16.5319C26.8526 17.2067 26.8072 17.7653 26.7393 18.0211C26.7165 18.1373 26.6711 18.1784 26.5578 18.2015C26.2856 18.2481 25.4691 18.2946 24.2667 18.2946H20.6827V18.2947ZM23.4727 16.3556C24.1759 16.3556 24.4256 16.3556 24.4935 16.3325C24.4935 16.2394 24.5164 16.1595 24.5164 16.0898C24.5164 15.3219 24.1533 13.9125 22.7244 13.9125C21.4088 13.9125 20.8418 15.0991 20.7055 16.3556H23.4727Z" fill="#D291FF"/>
</svg>
