<svg width="33" height="32" viewBox="0 0 33 32" fill="none" xmlns="http://www.w3.org/2000/svg">
<path d="M16.5 0C13.3355 5.2034e-09 10.242 0.938406 7.61079 2.69655C4.97958 4.45469 2.92882 6.9536 1.71785 9.87727C0.506872 12.8009 0.190072 16.0181 0.80751 19.1218C1.42495 22.2255 2.94889 25.0764 5.18662 27.314C7.42435 29.5516 10.2754 31.0754 13.3791 31.6927C16.4829 32.3099 19.7 31.9929 22.6236 30.7818C25.5472 29.5707 28.046 27.5198 29.804 24.8884C31.562 22.2571 32.5002 19.1636 32.5 15.9991C32.4951 11.7572 30.8078 7.69044 27.8083 4.69106C24.8087 1.69168 20.7419 0.00461404 16.5 0V0ZM27.0783 7.37424C29.049 9.77614 30.1379 12.7804 30.164 15.8871C27.0318 15.2661 23.8242 15.1182 20.6482 15.4486C20.2812 14.5429 19.927 13.7456 19.4471 12.7638C22.4164 11.6617 25.0467 9.80403 27.0783 7.37424V7.37424ZM25.5588 5.79699C25.3129 6.14749 23.2558 8.91662 18.3965 10.7333C16.8724 7.95886 15.1692 5.28655 13.2978 2.73334C15.437 2.21624 17.6696 2.22481 19.8048 2.75833C21.94 3.29185 23.9143 4.33444 25.5588 5.79699V5.79699ZM10.6902 3.65271C12.5197 6.19437 14.2111 8.83275 15.7568 11.5564C11.6315 12.6375 7.38686 13.1967 3.12233 13.2208C3.5601 11.1502 4.47109 9.209 5.78398 7.54909C7.09688 5.88919 8.77607 4.55561 10.6902 3.65271V3.65271ZM2.83422 16.0202C2.83422 15.8807 2.83422 15.7449 2.84156 15.6027C7.5914 15.6192 12.3197 14.9643 16.8863 13.6575C17.2772 14.4228 17.6515 15.2008 17.9947 15.9771C13.1323 17.5324 8.99586 20.7926 6.34747 25.157C4.08387 22.6524 2.83174 19.3961 2.83422 16.0202V16.0202ZM8.11189 26.8012C9.53957 23.8835 13.4134 20.1161 18.9232 18.2369C20.2208 21.5914 21.1968 25.0615 21.8382 28.6005C19.598 29.5531 17.1436 29.8886 14.7299 29.5724C12.3162 29.2562 10.0311 28.2997 8.11189 26.8021V26.8012ZM24.1357 27.3518C23.5311 24.0338 22.6431 20.7737 21.4813 17.6075C24.328 17.1895 27.2313 17.3889 29.9942 18.192C29.6952 20.0379 29.0212 21.803 28.0138 23.3783C27.0063 24.9537 25.6868 26.306 24.1367 27.3518H24.1357Z" fill="#B99F6E"/>
</svg>
