<svg width="34" height="27" viewBox="0 0 34 27" fill="none" xmlns="http://www.w3.org/2000/svg">
<path d="M30.6 0H3.4C2.50121 0.00446095 1.64077 0.362009 1.00682 0.994461C0.372868 1.62691 0.0169889 2.48281 0.0170001 3.375L0 23.625C0.00269064 24.5193 0.361768 25.3762 0.998809 26.0085C1.63585 26.6409 2.49909 26.9973 3.4 27H30.6C31.5009 26.9973 32.3641 26.6409 33.0012 26.0085C33.6382 25.3762 33.9973 24.5193 34 23.625V3.375C33.9973 2.48072 33.6382 1.62382 33.0012 0.991465C32.3641 0.359108 31.5009 0.00267085 30.6 0ZM30.6 6.75L17 15.1875L3.4 6.75V3.375L17 11.8125L30.6 3.375V6.75Z" fill="#435060"/>
</svg>
