<svg width="33" height="31" viewBox="0 0 33 31" fill="none" xmlns="http://www.w3.org/2000/svg">
<path d="M32.5 15.5929C32.4994 12.6126 31.6228 9.69487 29.9739 7.18511C28.325 4.67534 25.9728 2.67865 23.1959 1.43141C20.419 0.184166 17.3336 -0.261396 14.305 0.147471C11.2763 0.556337 8.4313 1.80251 6.10668 3.73846C3.78206 5.67441 2.07519 8.21907 1.18814 11.0712C0.301097 13.9233 0.271018 16.9635 1.10147 19.8317C1.93192 22.7 3.58812 25.2763 5.874 27.2556C8.15989 29.2348 10.9797 30.5343 13.9997 31V20.1014H9.93503V15.5929H13.9997V12.1568C13.9997 8.24846 16.3853 6.08948 20.0426 6.08948C21.2414 6.10579 22.4374 6.20742 23.621 6.39356V10.2268H21.6024C21.2587 10.1824 20.9092 10.2139 20.5796 10.319C20.2501 10.4241 19.949 10.6001 19.6987 10.8339C19.4484 11.0678 19.2553 11.3535 19.1336 11.67C19.0119 11.9864 18.9648 12.3255 18.9957 12.6621V15.5929H23.4329L22.7237 20.1014H19.0003V31C22.7636 30.4185 26.1907 28.5475 28.6653 25.7233C31.1398 22.8991 32.4996 19.307 32.5 15.5929V15.5929Z" fill="#B99F6E"/>
</svg>
