<svg width="34" height="33" viewBox="0 0 34 33" fill="none" xmlns="http://www.w3.org/2000/svg">
<path d="M6.02083 0H27.9792C31.3083 0 34 2.67894 34 5.99236V27.0009C34 30.3143 31.3083 32.9932 27.9792 32.9932H6.02083C2.69167 32.9932 0 30.3143 0 27.0009V5.99236C0 2.67894 2.69167 0 6.02083 0Z" fill="#470137"/>
<path d="M17.8783 8.67107L13.6283 15.6504L18.1617 23.0527C18.19 23.1091 18.2042 23.1655 18.19 23.2219C18.1758 23.2783 18.1192 23.236 18.0342 23.2501H14.79C14.5633 23.2501 14.4075 23.236 14.3083 23.095C14.0108 22.5029 13.6992 21.9248 13.4017 21.3326C13.1042 20.7545 12.7783 20.1623 12.4383 19.556C12.0983 18.9497 11.7583 18.3434 11.4183 17.7231H11.39C11.0925 18.3293 10.7666 18.9356 10.4408 19.5419C10.115 20.1482 9.78915 20.7545 9.47748 21.3467C9.15165 21.9389 8.82582 22.5451 8.49998 23.1232C8.44332 23.2642 8.32998 23.2783 8.17415 23.2783H5.05748C5.00082 23.2783 4.95832 23.3065 4.95832 23.236C4.94415 23.1796 4.95832 23.1232 4.98665 23.0809L9.39248 15.8901L5.09998 8.65697C5.05748 8.60057 5.04332 8.54417 5.07165 8.51597C5.09998 8.47368 5.15665 8.45958 5.21332 8.45958H8.42915C8.49998 8.45958 8.57082 8.47368 8.62748 8.48778C8.68415 8.51597 8.72665 8.55827 8.76915 8.61467C9.03832 9.22096 9.34998 9.82724 9.67582 10.4335C10.0158 11.0398 10.3417 11.632 10.6958 12.2242C11.0358 12.8164 11.3475 13.4086 11.645 14.0148H11.6733C11.9708 13.3945 12.2825 12.7882 12.5942 12.196C12.9058 11.6038 13.2317 11.0116 13.5575 10.4194C13.8833 9.82724 14.195 9.22096 14.5067 8.64287C14.5208 8.58647 14.5492 8.53007 14.5917 8.50187C14.6483 8.47368 14.705 8.45958 14.7758 8.47368H17.765C17.8358 8.45958 17.9067 8.50187 17.9208 8.57237C17.935 8.58647 17.9067 8.64287 17.8783 8.67107ZM24.4233 23.5462C23.375 23.5603 22.3267 23.3488 21.3775 22.9117C20.485 22.5028 19.7483 21.8261 19.2383 20.9942C18.7142 20.1341 18.4592 19.0625 18.4592 17.7795C18.445 16.7361 18.7142 15.7068 19.2383 14.8044C19.7767 13.8879 20.5558 13.1266 21.4908 12.619C22.4825 12.0691 23.6725 11.8012 25.075 11.8012C25.1458 11.8012 25.245 11.8012 25.3725 11.8153C25.5 11.8294 25.6417 11.8294 25.8117 11.8435V7.388C25.8117 7.2893 25.8542 7.2329 25.9533 7.2329H28.8292C28.9 7.2188 28.9567 7.2752 28.9708 7.3316V20.7827C28.9708 21.0365 28.985 21.3185 28.9992 21.6287C29.0275 21.9248 29.0417 22.2068 29.0558 22.4465C29.0558 22.5451 29.0133 22.6297 28.9142 22.672C28.1775 22.9822 27.3983 23.2078 26.605 23.3488C25.8825 23.4757 25.16 23.5462 24.4233 23.5462ZM25.8117 20.7263V14.5224C25.6842 14.4942 25.5567 14.466 25.4292 14.4519C25.2733 14.4378 25.1175 14.4237 24.9617 14.4237C24.4092 14.4237 23.8567 14.5365 23.3608 14.7903C22.8792 15.03 22.4683 15.3825 22.1567 15.8337C21.845 16.2849 21.6892 16.8912 21.6892 17.6244C21.675 18.1179 21.76 18.6113 21.93 19.0766C22.0717 19.4573 22.2842 19.7957 22.5675 20.0777C22.8367 20.3315 23.1625 20.5289 23.5308 20.6417C23.9133 20.7686 24.31 20.825 24.7067 20.825C24.9192 20.825 25.1175 20.8109 25.3017 20.7968C25.4858 20.8109 25.6417 20.7827 25.8117 20.7263Z" fill="#FF61F6"/>
</svg>
