<svg width="34" height="33" viewBox="0 0 34 33" fill="none" xmlns="http://www.w3.org/2000/svg">
<path d="M6.02083 0H27.9792C31.3083 0 34 2.67894 34 5.99236V27.0009C34 30.3143 31.3083 32.9932 27.9792 32.9932H6.02083C2.69167 32.9932 0 30.3143 0 27.0009V5.99236C0 2.67894 2.69167 0 6.02083 0Z" fill="#232323"/>
<path d="M13.5 27C15.432 27 17 25.432 17 23.5V20H13.5C11.568 20 10 21.568 10 23.5C10 25.432 11.568 27 13.5 27Z" fill="#0ACF83"/>
<path d="M10 16.5C10 14.568 11.568 13 13.5 13H17V20H13.5C11.568 20 10 18.432 10 16.5Z" fill="#A259FF"/>
<path d="M10.0002 9.5C10.0002 7.568 11.5682 6 13.5002 6H17.0002V13H13.5002C11.5682 13 10.0002 11.432 10.0002 9.5Z" fill="#F24E1E"/>
<path d="M17 6H20.5C22.432 6 24 7.568 24 9.5C24 11.432 22.432 13 20.5 13H17V6Z" fill="#FF7262"/>
<path d="M24 16.5C24 18.432 22.432 20 20.5 20C18.568 20 17 18.432 17 16.5C17 14.568 18.568 13 20.5 13C22.432 13 24 14.568 24 16.5Z" fill="#1ABCFE"/>
</svg>
