<svg width="34" height="33" viewBox="0 0 34 33" fill="none" xmlns="http://www.w3.org/2000/svg">
<path d="M6.02083 0H27.9792C31.3083 0 34 2.67894 34 5.99236V27.0009C34 30.3143 31.3083 32.9932 27.9792 32.9932H6.02083C2.69167 32.9932 0 30.3143 0 27.0009V5.99236C0 2.67894 2.69167 0 6.02083 0Z" fill="#330000"/>
<path d="M16.4333 19.7392H11.1633L10.0866 23.0526C10.0583 23.1795 9.94498 23.2641 9.81748 23.25H7.15414C6.99831 23.25 6.95581 23.1654 6.99831 22.9962L11.56 9.92582C11.6025 9.78483 11.645 9.62973 11.7016 9.46053C11.7583 9.16444 11.7866 8.85425 11.7866 8.54405C11.7725 8.47356 11.8291 8.40306 11.9 8.38896H15.5691C15.6825 8.38896 15.7391 8.43126 15.7533 8.50176L20.9241 23.0244C20.9666 23.1795 20.9241 23.25 20.7825 23.25H17.8216C17.7225 23.2641 17.6233 23.1936 17.595 23.0949L16.4333 19.7392ZM11.985 16.877H15.5833C15.4983 16.5809 15.385 16.2284 15.2575 15.8618C15.13 15.4811 15.0025 15.0722 14.875 14.6492C14.7333 14.2121 14.6058 13.7891 14.4641 13.352C14.3225 12.915 14.195 12.5061 14.0816 12.0972C13.9683 11.7024 13.8691 11.3358 13.77 10.9974H13.7416C13.6141 11.6037 13.4583 12.21 13.26 12.8163C13.0475 13.493 12.835 14.198 12.6083 14.903C12.41 15.6221 12.1975 16.2848 11.985 16.877ZM24.0833 10.8564C23.6158 10.8705 23.1625 10.6872 22.8225 10.3629C22.4966 10.0104 22.3266 9.54513 22.3408 9.06574C22.3266 8.58635 22.5108 8.13516 22.8508 7.81087C23.1908 7.48658 23.6441 7.31738 24.1116 7.31738C24.6641 7.31738 25.0891 7.48658 25.4008 7.81087C25.7125 8.14926 25.8825 8.60045 25.8683 9.06574C25.8825 9.54513 25.7125 10.0104 25.3725 10.3629C25.0466 10.7013 24.565 10.8846 24.0833 10.8564ZM22.4966 23.0949V12.2382C22.4966 12.0972 22.5533 12.0408 22.6808 12.0408H25.4858C25.6133 12.0408 25.67 12.1113 25.67 12.2382V23.0949C25.67 23.25 25.6133 23.3205 25.4858 23.3205H22.7091C22.5675 23.3205 22.4966 23.2359 22.4966 23.0949Z" fill="#FF9A00"/>
</svg>
