<svg width="34" height="33" viewBox="0 0 34 33" fill="none" xmlns="http://www.w3.org/2000/svg">
<path d="M17 33C26.3888 33 34 25.6127 34 16.5C34 7.3873 26.3888 0 17 0C7.61116 0 0 7.3873 0 16.5C0 25.6127 7.61116 33 17 33Z" fill="#23BEC7"/>
<path d="M17.3958 16.7781C17.8929 16.3542 18.2965 15.9549 18.8288 15.7373C19.1408 15.6105 19.4859 15.4307 19.7823 15.7089C20.0786 15.9871 19.8915 16.2918 19.8018 16.5908C19.6224 17.1907 19.4411 17.7925 19.2773 18.3962C19.2285 18.5721 19.1466 18.7746 19.3319 18.9317C19.5171 19.0888 19.7491 18.9847 19.9324 18.8939C20.6109 18.557 21.1627 18.1577 21.0769 17.2721C21.0262 16.7422 21.0769 16.1782 21.5819 15.7998C21.7769 15.6503 22.0128 15.4762 22.2604 15.6427C22.508 15.8092 22.3306 16.0212 22.2604 16.2104C22.0209 16.9241 21.9542 17.6818 22.0654 18.4245C22.0908 18.5911 22.0654 18.8314 22.2234 18.892C22.4398 18.9714 22.5373 18.7027 22.6757 18.593C22.8142 18.4832 22.9077 18.328 23.0286 18.1993C23.3484 17.8606 23.5239 17.59 23.0988 17.1263C22.6055 16.5908 22.7537 15.5424 23.2392 15.0447C23.3725 14.889 23.5528 14.7779 23.7546 14.727C23.9565 14.6761 24.1697 14.6879 24.3642 14.7608C24.7873 14.9103 24.9257 15.2642 24.9374 15.6786C24.9491 16.1442 24.7425 16.5529 24.5806 17.0033C25.0525 17.1188 25.3449 16.8614 25.6101 16.5832C26.2496 15.9095 26.9905 15.4818 27.9732 15.5821C28.6849 15.654 29.0924 16.0268 29.0553 16.57C29.0413 16.6902 28.9978 16.8055 28.9284 16.9061C28.8591 17.0067 28.7658 17.0897 28.6566 17.148C28.5473 17.2064 28.4253 17.2385 28.3006 17.2417C28.1759 17.2448 28.0523 17.2189 27.9401 17.1661C27.7178 17.0506 27.7451 16.9447 27.9401 16.8349C28.0149 16.8035 28.0749 16.7461 28.1084 16.674C28.1419 16.6019 28.1466 16.5203 28.1214 16.4451C28.0907 16.3551 28.0328 16.2761 27.9553 16.2184C27.8778 16.1607 27.7842 16.1269 27.6866 16.1215C27.4181 16.0827 27.1444 16.1421 26.9184 16.288C26.2048 16.7308 25.8051 17.9609 26.1385 18.7103C26.3335 19.1607 26.6961 19.2459 27.0724 18.926C27.2801 18.7329 27.4366 18.494 27.5287 18.2296C27.5837 18.0649 27.6618 17.9082 27.7607 17.7641C27.9381 17.5351 28.1838 17.3326 28.4919 17.4556C28.7999 17.5786 28.642 17.889 28.5913 18.099C28.41 18.8276 28.2559 19.5373 28.8916 20.1504C28.9084 20.1653 28.9218 20.1834 28.9309 20.2036C28.9401 20.2238 28.9448 20.2457 28.9448 20.2678C28.9448 20.2898 28.9401 20.3117 28.9309 20.3319C28.9218 20.3521 28.9084 20.3702 28.8916 20.3851C28.8531 20.4217 28.8037 20.4454 28.7504 20.4529C28.6971 20.4604 28.6428 20.4512 28.5952 20.4267C28.3748 20.3517 28.1717 20.2351 27.9978 20.0838C27.8238 19.9325 27.6823 19.7493 27.5813 19.5449C27.517 19.4086 27.4897 19.2099 27.2616 19.4048C27.0648 19.6006 26.8018 19.7208 26.5209 19.7434C26.2401 19.766 25.9603 19.6895 25.7329 19.5278C25.1792 19.1834 24.9803 18.6668 25.031 18.0479C25.0408 17.9268 25.0564 17.8095 25.072 17.6695C24.4344 17.7206 23.9158 17.8587 23.5512 18.4264C23.2349 18.8956 22.8043 19.2817 22.2975 19.5505C21.6326 19.929 21.3733 19.8117 21.1939 19.102C21.1685 19.0036 21.1471 18.9128 21.1081 18.7235C20.6762 19.0989 20.1817 19.4003 19.6458 19.6149C18.6378 19.9631 18.0528 19.5146 18.201 18.4794C18.2924 17.9478 18.4435 17.4274 18.6514 16.9276C18.6982 16.8046 18.8113 16.6532 18.6514 16.5492C18.5344 16.4772 18.4116 16.5984 18.3199 16.6741C17.698 17.1869 17.1501 17.7546 16.9707 18.5665C16.929 18.8059 16.8584 19.0396 16.7601 19.2629C16.7009 19.4122 16.592 19.5379 16.4507 19.6202C16.3094 19.7025 16.1438 19.7366 15.9802 19.7171C15.6293 19.6565 15.8554 19.3083 15.758 19.0945C15.3836 19.2837 15.0248 19.4729 14.6544 19.6376C14.3873 19.7568 14.0383 19.8514 13.8433 19.6281C13.5177 19.2496 13.2973 19.3802 12.9542 19.5922C12.4531 19.9025 11.8779 19.7701 11.4236 19.2572C11.1936 18.9979 11.0746 19.015 10.8523 19.2458C10.4023 19.6965 9.86752 20.0594 9.27693 20.3151C6.95866 21.3843 4.67939 20.1845 4.5507 17.7054C4.39862 14.9065 5.62502 12.6792 8.03493 11.1255C8.34627 10.9156 8.70169 10.7754 9.07558 10.7148C9.44948 10.6543 9.83255 10.675 10.1972 10.7754C10.625 10.8839 11.0009 11.1329 11.2611 11.4799C11.5212 11.8269 11.6496 12.2507 11.6244 12.6792C11.596 13.0902 11.4335 13.4818 11.1604 13.7972C10.8873 14.1127 10.5179 14.3355 10.1056 14.4334C9.96715 14.4637 9.78777 14.5167 9.71563 14.3899C9.60644 14.2196 9.77997 14.1041 9.89891 14.0114C10.5501 13.4778 10.6613 12.7832 10.5384 12.0206C10.4214 11.309 9.89891 11.0214 9.20284 11.2807C8.70322 11.4819 8.26253 11.7998 7.9199 12.2061C6.76842 13.441 6.04847 14.9975 5.86289 16.6532C5.76905 17.3681 5.90023 18.0938 6.2392 18.7349C6.73444 19.6527 7.57479 20.0596 8.61206 19.8211C9.43285 19.622 10.1861 19.219 10.7977 18.6516C10.8835 18.5647 10.9504 18.4619 10.9946 18.3495C11.0388 18.237 11.0594 18.1171 11.0551 17.9969C11.1975 16.5586 12.4784 15.4799 13.9096 15.5859C14.2548 15.5963 14.5836 15.7313 14.8318 15.9644C14.9498 16.0715 15.0306 16.2115 15.0631 16.365C15.0955 16.5186 15.0781 16.6781 15.0131 16.8217C14.8747 17.1472 14.5666 17.2531 14.2176 17.2361C14.1447 17.2438 14.0708 17.2338 14.0028 17.2071C13.9348 17.1803 13.8746 17.1376 13.8277 17.0828C13.699 16.8936 13.9447 16.8803 14.0227 16.7857C14.241 16.5208 14.1182 16.2047 13.7438 16.1309C13.5586 16.0906 13.3657 16.0987 13.1848 16.1546C13.0038 16.2105 12.8415 16.312 12.7144 16.4489C12.4493 16.7101 12.2517 17.0286 12.1378 17.3783C12.024 17.7279 11.997 18.0988 12.0592 18.4605C12.0982 18.7406 12.2211 19.015 12.5389 19.0982C12.8567 19.1815 13.0634 18.9506 13.2584 18.7349C13.4027 18.5559 13.507 18.3497 13.5645 18.1293C13.6111 17.9223 13.727 17.736 13.894 17.5994C14.089 17.4537 14.3034 17.3345 14.5335 17.4651C14.7636 17.5957 14.6232 17.8152 14.6232 17.9969C14.6232 18.3299 14.2527 18.7179 14.7109 18.9733C14.9566 19.1096 15.9471 18.3848 16.0251 18.0442C16.1479 17.501 16.2473 16.9522 16.3585 16.4072C16.3722 16.2151 16.4471 16.0319 16.573 15.883C16.6677 15.7782 16.7931 15.7039 16.9324 15.6701C17.0718 15.6363 17.2185 15.6445 17.3529 15.6938C17.6473 15.813 17.501 16.0723 17.4718 16.2918C17.4562 16.4224 17.4328 16.5548 17.3958 16.7781ZM23.9821 15.5178C23.9314 15.3853 23.8495 15.2566 23.6818 15.2737C23.5141 15.2907 23.4654 15.4402 23.4517 15.5802C23.4303 15.7876 23.4595 15.997 23.5371 16.1913C23.6147 16.3856 23.7384 16.5595 23.8982 16.6987C24.0823 16.3303 24.1124 15.9071 23.9821 15.5178Z" fill="white"/>
</svg>
